<?xml version="1.0" encoding="UTF-8"?>
<svg width="16px" height="13px" viewBox="0 0 16 13" version="1.1" xmlns="http://www.w3.org/2000/svg" xmlns:xlink="http://www.w3.org/1999/xlink">
    <!-- Generator: Sketch 51.1 (57501) - http://www.bohemiancoding.com/sketch -->
    <title>Shape</title>
    <desc>Created with Sketch.</desc>
    <defs></defs>
    <g id="Page-1" stroke="none" stroke-width="1" fill="none" fill-rule="evenodd">
        <g id="Main-series" transform="translate(-598.000000, -3378.000000)" fill="#FFFFFF" fill-rule="nonzero">
            <g id="Group-12" transform="translate(0.000000, 3218.000000)">
                <g id="icons8-twitter" transform="translate(598.000000, 160.000000)">
                    <path d="M16,1.533854 C15.401042,1.79947933 14.7994793,2 14.1328127,2.06770867 C14.7994793,1.66666667 15.3333333,1 15.5989587,0.265625333 C14.932292,0.666666667 14.2656253,0.932292 13.533854,1.06770867 C12.8671873,0.401042 12,0 11.0677087,0 C9.26562533,0 7.79947933,1.466146 7.79947933,3.26562533 C7.79947933,3.533854 7.79947933,3.79947933 7.86718733,4 C5.13281267,3.86718733 2.73437533,2.59895867 1.13281267,0.598958667 C0.799479333,1.06770867 0.666666667,1.66666667 0.666666667,2.26562533 C0.666666667,3.401042 1.26562533,4.401042 2.13281267,5 C1.59895867,4.932292 1.06770867,4.79947933 0.666666667,4.59895867 C0.666666667,4.59895867 0.666666667,4.59895867 0.666666667,4.66666667 C0.666666667,6.26562533 1.79947933,7.59895867 3.26562533,7.86718733 C3,7.932292 2.73437533,8 2.401042,8 C2.20052067,8 2,8 1.79947933,7.932292 C2.20052067,9.26562533 3.401042,10.2005207 4.86718733,10.2005207 C3.73437533,11.0677087 2.33333333,11.5989587 0.799479333,11.5989587 C0.533854,11.5989587 0.265625333,11.5989587 0,11.533854 C1.466146,12.466146 3.20052067,13 5,13 C11.0677087,13 14.3333333,8 14.3333333,3.66666667 C14.3333333,3.533854 14.3333333,3.401042 14.3333333,3.26562533 C15,2.79947933 15.533854,2.20052067 16,1.533854" id="Shape"></path>
                </g>
            </g>
        </g>
    </g>
</svg>