<?xml version="1.0" encoding="UTF-8"?>
<svg width="16px" height="16px" viewBox="0 0 16 16" version="1.1" xmlns="http://www.w3.org/2000/svg" xmlns:xlink="http://www.w3.org/1999/xlink">
    <!-- Generator: Sketch 51.1 (57501) - http://www.bohemiancoding.com/sketch -->
    <title>Shape</title>
    <desc>Created with Sketch.</desc>
    <defs></defs>
    <g id="Page-1" stroke="none" stroke-width="1" fill="none" fill-rule="evenodd">
        <g id="Main-series" transform="translate(-1287.000000, -30.000000)" fill="#1A1A1A" fill-rule="nonzero">
            <g id="Group">
                <g id="Group-13" transform="translate(1165.000000, 30.000000)">
                    <g id="icons8-search" transform="translate(122.000000, 0.000000)">
                        <path d="M8.841146,9.91145867 L10.494792,11.565104 C10.2421873,12.0468753 10.216146,12.526042 10.4817707,12.7916667 L13.5,15.809896 C13.8802087,16.190104 14.7083333,15.9817707 15.34375,15.34375 C15.9817707,14.7057293 16.190104,13.8802087 15.809896,13.5 L12.7942707,10.4817707 C12.526042,10.216146 12.0468753,10.2421873 11.565104,10.4921873 L9.91145867,8.841146 L8.841146,9.91145867 Z M5.66666667,0 C2.53645867,0 0,2.53645867 0,5.66666667 C0,8.79687533 2.53645867,11.3333333 5.66666667,11.3333333 C8.79687533,11.3333333 11.3333333,8.79687533 11.3333333,5.66666667 C11.3333333,2.53645867 8.79687533,0 5.66666667,0 Z M5.66666667,10 C3.27343733,10 1.33333333,8.059896 1.33333333,5.66666667 C1.33333333,3.27343733 3.27343733,1.33333333 5.66666667,1.33333333 C8.059896,1.33333333 10,3.27343733 10,5.66666667 C10,8.059896 8.059896,10 5.66666667,10 Z" id="Shape"></path>
                    </g>
                </g>
            </g>
        </g>
    </g>
</svg>