<?xml version="1.0" encoding="UTF-8"?>
<svg width="16px" height="16px" viewBox="0 0 16 16" version="1.1" xmlns="http://www.w3.org/2000/svg" xmlns:xlink="http://www.w3.org/1999/xlink">
    <!-- Generator: Sketch 51.1 (57501) - http://www.bohemiancoding.com/sketch -->
    <title>Shape</title>
    <desc>Created with Sketch.</desc>
    <defs></defs>
    <g id="Page-1" stroke="none" stroke-width="1" fill="none" fill-rule="evenodd">
        <g id="Main-series" transform="translate(-217.000000, -33.000000)" fill="#1A1A1A" fill-rule="nonzero">
            <g id="Group">
                <g id="Group-7" transform="translate(135.000000, 24.000000)">
                    <path d="M96.533854,9 L83.466146,9 C82.6666667,9 82,9.66666667 82,10.466146 L82,23.533854 C82,24.3333333 82.6666667,25 83.466146,25 L90,25 L90,18.3333333 L88,18.3333333 L88,16.3333333 L90,16.3333333 L90,14.3333333 C90,12.6666667 90.6666667,11.6666667 92.6666667,11.6666667 L94.6666667,11.6666667 L94.6666667,13.6666667 L93.7994793,13.6666667 C93.2005207,13.6666667 92.6666667,14.2005207 92.6666667,14.7994793 L92.6666667,16.3333333 L95.3333333,16.3333333 L95,18.3333333 L92.6666667,18.3333333 L92.6666667,25 L96.533854,25 C97.3333333,25 98,24.3333333 98,23.533854 L98,10.466146 C98,9.66666667 97.3333333,9 96.533854,9 Z" id="Shape"></path>
                </g>
            </g>
        </g>
    </g>
</svg>