<?xml version="1.0" encoding="UTF-8"?>
<svg width="14px" height="16px" viewBox="0 0 14 16" version="1.1" xmlns="http://www.w3.org/2000/svg" xmlns:xlink="http://www.w3.org/1999/xlink">
    <!-- Generator: Sketch 51.2 (57519) - http://www.bohemiancoding.com/sketch -->
    <title>Shape</title>
    <desc>Created with Sketch.</desc>
    <defs></defs>
    <g id="Page-1" stroke="none" stroke-width="1" fill="none" fill-rule="evenodd">
        <g id="News-page-series" transform="translate(-565.000000, -531.000000)" fill="#000000" fill-rule="nonzero">
            <g id="Group-19" transform="translate(555.000000, 523.000000)">
                <g id="icons8-share" transform="translate(10.000000, 8.000000)">
                    <path d="M11.6666667,-8.8817842e-17 C10.3780023,-4.4408921e-16 9.33333333,1.0745166 9.33333333,2.4 C9.33380859,2.55052039 9.3480497,2.70066103 9.37586844,2.84843752 L3.84179686,6.16875 C3.42028577,5.80147542 2.88575741,5.59993723 2.33333333,5.6 C1.04466892,5.6 0,6.6745166 0,8 C0,9.3254834 1.04466892,10.4 2.33333333,10.4 C2.884904,10.398887 3.41825821,10.196832 3.8387587,9.8296872 L9.37586844,13.1515624 C9.3480497,13.2993389 9.33380859,13.4494796 9.33333333,13.6 C9.33333333,14.9254834 10.3780023,16 11.6666667,16 C12.9553311,16 14,14.9254834 14,13.6 C14,12.2745166 12.9553311,11.2 11.6666667,11.2 C11.1145734,11.2007436 10.5806212,11.4028212 10.1597222,11.7703128 L4.62413194,8.4484376 C4.65195056,8.30066107 4.66619154,8.15052041 4.66666667,8 C4.66619154,7.84947959 4.65195056,7.69933893 4.62413194,7.5515624 L10.1582032,4.23125 C10.5797143,4.59852456 11.1142426,4.80006275 11.6666667,4.8 C12.9553311,4.8 14,3.7254834 14,2.4 C14,1.0745166 12.9553311,-4.4408921e-16 11.6666667,-8.8817842e-17 Z" id="Shape"></path>
                </g>
            </g>
        </g>
    </g>
</svg>