<?xml version="1.0" encoding="UTF-8"?>
<svg width="16px" height="13px" viewBox="0 0 16 13" version="1.1" xmlns="http://www.w3.org/2000/svg" xmlns:xlink="http://www.w3.org/1999/xlink">
    <!-- Generator: Sketch 51.1 (57501) - http://www.bohemiancoding.com/sketch -->
    <title>Shape</title>
    <desc>Created with Sketch.</desc>
    <defs></defs>
    <g id="Page-1" stroke="none" stroke-width="1" fill="none" fill-rule="evenodd">
        <g id="Main-series" transform="translate(-245.000000, -34.000000)" fill="#1A1A1A" fill-rule="nonzero">
            <g id="Group">
                <g id="Group-7" transform="translate(135.000000, 24.000000)">
                    <path d="M126,11.533854 C125.401042,11.7994793 124.799479,12 124.132813,12.0677087 C124.799479,11.6666667 125.333333,11 125.598959,10.2656253 C124.932292,10.6666667 124.265625,10.932292 123.533854,11.0677087 C122.867187,10.401042 122,10 121.067709,10 C119.265625,10 117.799479,11.466146 117.799479,13.2656253 C117.799479,13.533854 117.799479,13.7994793 117.867187,14 C115.132813,13.8671873 112.734375,12.5989587 111.132813,10.5989587 C110.799479,11.0677087 110.666667,11.6666667 110.666667,12.2656253 C110.666667,13.401042 111.265625,14.401042 112.132813,15 C111.598959,14.932292 111.067709,14.7994793 110.666667,14.5989587 C110.666667,14.5989587 110.666667,14.5989587 110.666667,14.6666667 C110.666667,16.2656253 111.799479,17.5989587 113.265625,17.8671873 C113,17.932292 112.734375,18 112.401042,18 C112.200521,18 112,18 111.799479,17.932292 C112.200521,19.2656253 113.401042,20.2005207 114.867187,20.2005207 C113.734375,21.0677087 112.333333,21.5989587 110.799479,21.5989587 C110.533854,21.5989587 110.265625,21.5989587 110,21.533854 C111.466146,22.466146 113.200521,23 115,23 C121.067709,23 124.333333,18 124.333333,13.6666667 C124.333333,13.533854 124.333333,13.401042 124.333333,13.2656253 C125,12.7994793 125.533854,12.2005207 126,11.533854" id="Shape"></path>
                </g>
            </g>
        </g>
    </g>
</svg>