<?xml version="1.0" encoding="UTF-8"?>
<svg width="16px" height="16px" viewBox="0 0 16 16" version="1.1" xmlns="http://www.w3.org/2000/svg" xmlns:xlink="http://www.w3.org/1999/xlink">
    <!-- Generator: Sketch 51.1 (57501) - http://www.bohemiancoding.com/sketch -->
    <title>Shape</title>
    <desc>Created with Sketch.</desc>
    <defs></defs>
    <g id="Page-1" stroke="none" stroke-width="1" fill="none" fill-rule="evenodd">
        <g id="Main-series" transform="translate(-563.000000, -3375.000000)" fill="#FFFFFF" fill-rule="nonzero">
            <g id="Group-12" transform="translate(0.000000, 3218.000000)">
                <g id="icons8-facebook" transform="translate(563.000000, 157.000000)">
                    <path d="M14.533854,0 L1.466146,0 C0.666666667,0 0,0.666666667 0,1.466146 L0,14.533854 C0,15.3333333 0.666666667,16 1.466146,16 L8,16 L8,9.33333333 L6,9.33333333 L6,7.33333333 L8,7.33333333 L8,5.33333333 C8,3.66666667 8.66666667,2.66666667 10.6666667,2.66666667 L12.6666667,2.66666667 L12.6666667,4.66666667 L11.7994793,4.66666667 C11.2005207,4.66666667 10.6666667,5.20052067 10.6666667,5.79947933 L10.6666667,7.33333333 L13.3333333,7.33333333 L13,9.33333333 L10.6666667,9.33333333 L10.6666667,16 L14.533854,16 C15.3333333,16 16,15.3333333 16,14.533854 L16,1.466146 C16,0.666666667 15.3333333,0 14.533854,0 Z" id="Shape"></path>
                </g>
            </g>
        </g>
    </g>
</svg>