<?xml version="1.0" encoding="UTF-8"?>
<svg width="136px" height="28px" viewBox="0 0 136 28" version="1.1" xmlns="http://www.w3.org/2000/svg" xmlns:xlink="http://www.w3.org/1999/xlink">
    <!-- Generator: Sketch 51.1 (57501) - http://www.bohemiancoding.com/sketch -->
    <title>Logo with line</title>
    <desc>Created with Sketch.</desc>
    <defs></defs>
    <g id="Page-1" stroke="none" stroke-width="1" fill="none" fill-rule="evenodd">
        <g id="Main-series" transform="translate(-135.000000, -3292.000000)">
            <g id="Group-12" transform="translate(0.000000, 3218.000000)">
                <g id="Logo-with-line" transform="translate(135.000000, 74.000000)">
                    <g id="Group-4" fill="#FFFFFF">
                        <path d="M0.505942315,19.645163 C0.505942315,19.197163 0.731395667,18.973163 1.14377224,18.973163 L4.51776236,18.973163 C4.93013893,18.973163 5.1550716,19.197163 5.19256038,19.6078296 C5.26805862,21.9230148 6.01731352,23.0430148 7.40491903,23.0430148 C8.71702629,23.0430148 9.39130364,22.221163 9.39130364,20.877163 C9.39130364,15.7246444 0.731395667,13.5593111 0.731395667,6.54012593 C0.731395667,2.69427407 3.31760075,0.379088889 7.14197689,0.379088889 C11.0788194,0.379088889 13.5910883,3.17960741 13.7410434,7.80945926 C13.7410434,8.25745926 13.51559,8.48145926 13.1032135,8.48145926 L9.76671211,8.48145926 C9.35433554,8.48145926 9.09191409,8.25745926 9.09191409,7.80945926 C9.01693653,5.68094074 8.37962728,4.71027407 7.21747513,4.71027407 C6.0548023,4.71027407 5.38000428,5.30760741 5.38000428,6.54012593 C5.38000428,11.1321259 14.1159312,13.3353111 14.1159312,20.877163 C14.1159312,24.909163 11.3787296,27.4115333 7.32942079,27.4115333 C3.20565509,27.4115333 0.655897431,24.4616815 0.505942315,19.645163" id="Fill-14"></path>
                        <path d="M18.6503031,20.0932667 L18.6503031,7.65971111 C18.6503031,3.51571111 21.3500159,0.677859259 25.3993247,0.677859259 L29.3356465,0.677859259 C29.7480231,0.677859259 30.0104446,0.901859259 30.0104446,1.31252593 L30.0104446,4.29971111 C30.0104446,4.74771111 29.7480231,4.97171111 29.3356465,4.97171111 L25.9616564,4.97171111 C24.3491182,4.97171111 23.37441,6.09171111 23.37441,7.80956296 L23.37441,11.6922296 L28.3984271,11.6922296 C28.8482924,11.6922296 29.0737458,11.953563 29.0737458,12.3642296 L29.0737458,15.201563 C29.0737458,15.6500815 28.8482924,15.8740815 28.3984271,15.8740815 L23.37441,15.8740815 L23.37441,19.9807481 C23.37441,21.6986 24.3491182,22.8186 25.9616564,22.8186 L29.3356465,22.8186 C29.7480231,22.8186 30.0104446,23.0426 30.0104446,23.4532667 L30.0104446,26.4777852 C30.0104446,26.8879333 29.7480231,27.1124519 29.3356465,27.1124519 L25.3993247,27.1124519 C21.3500159,27.1124519 18.6503031,24.2746 18.6503031,20.0932667" id="Fill-16"></path>
                        <path d="M41.1818404,13.4846963 C42.7188803,13.4846963 43.5061447,12.5508444 43.5061447,10.8708444 L43.5061447,7.13699259 C43.5061447,5.68099259 42.7188803,4.78499259 41.4442618,4.78499259 C40.2446209,4.78499259 39.4568359,5.68099259 39.4568359,7.13699259 L39.4568359,13.4846963 L41.1818404,13.4846963 Z M34.7332497,26.2910667 L34.7332497,7.47299259 C34.7332497,3.25432593 37.4324418,0.379140741 41.4067731,0.379140741 C45.49305,0.379140741 48.2302515,3.25432593 48.2302515,7.47299259 L48.2302515,10.7215111 C48.2302515,13.3721778 47.1805657,15.3886963 45.4560819,16.5838815 L49.0924935,26.2910667 C49.2049598,26.7017333 48.8675608,26.9630667 48.4551842,26.9630667 L44.818252,26.9630667 C44.4058754,26.9630667 44.2939297,26.7017333 44.1434539,26.3284 L41.2193292,17.7780296 L39.4568359,17.7780296 L39.4568359,26.2910667 C39.4568359,26.7390667 39.2324239,26.9630667 38.8200473,26.9630667 L35.4080477,26.9630667 C34.9581824,26.9630667 34.7332497,26.7390667 34.7332497,26.2910667 Z" id="Fill-18"></path>
                        <path d="M54.7148731,0.827348148 L58.0513745,0.827348148 C58.463751,0.827348148 58.7266932,1.05134815 58.7266932,1.46201481 L58.7266932,26.2912741 C58.7266932,26.7387556 58.463751,26.9632741 58.0513745,26.9632741 L54.7148731,26.9632741 C54.2650078,26.9632741 54.0400751,26.7387556 54.0400751,26.2912741 L54.0400751,1.46201481 C54.0400751,1.05134815 54.2650078,0.827348148 54.7148731,0.827348148" id="Fill-20"></path>
                        <path d="M64.1989094,20.0932667 L64.1989094,7.65971111 C64.1989094,3.51571111 66.8986222,0.677859259 70.9474103,0.677859259 L74.8837321,0.677859259 C75.2961087,0.677859259 75.5585302,0.901859259 75.5585302,1.31252593 L75.5585302,4.29971111 C75.5585302,4.74771111 75.2961087,4.97171111 74.8837321,4.97171111 L71.509742,4.97171111 C69.8977245,4.97171111 68.9224956,6.09171111 68.9224956,7.80956296 L68.9224956,11.6922296 L73.9470333,11.6922296 C74.3968987,11.6922296 74.6218314,11.953563 74.6218314,12.3642296 L74.6218314,15.201563 C74.6218314,15.6500815 74.3968987,15.8740815 73.9470333,15.8740815 L68.9224956,15.8740815 L68.9224956,19.9807481 C68.9224956,21.6986 69.8977245,22.8186 71.509742,22.8186 L74.8837321,22.8186 C75.2961087,22.8186 75.5585302,23.0426 75.5585302,23.4532667 L75.5585302,26.4777852 C75.5585302,26.8879333 75.2961087,27.1124519 74.8837321,27.1124519 L70.9474103,27.1124519 C66.8986222,27.1124519 64.1989094,24.2746 64.1989094,20.0932667" id="Fill-22"></path>
                        <path d="M79.5319763,19.645163 C79.5319763,19.197163 79.7569089,18.973163 80.1692855,18.973163 L83.5432756,18.973163 C83.9561729,18.973163 84.1811056,19.197163 84.2185943,19.6078296 C84.2935719,21.9230148 85.0433475,23.0430148 86.4304323,23.0430148 C87.7430603,23.0430148 88.4173376,22.221163 88.4173376,20.877163 C88.4173376,15.7246444 79.7569089,13.5593111 79.7569089,6.54012593 C79.7569089,2.69427407 82.3436347,0.379088889 86.1680109,0.379088889 C90.1048533,0.379088889 92.6166015,3.17960741 92.7665567,7.80945926 C92.7665567,8.25745926 92.541624,8.48145926 92.1292474,8.48145926 L88.7922254,8.48145926 C88.3798488,8.48145926 88.1174274,8.25745926 88.1174274,7.80945926 C88.0429705,5.68094074 87.4051406,4.71027407 86.2429884,4.71027407 C85.0808363,4.71027407 84.4055176,5.30760741 84.4055176,6.54012593 C84.4055176,11.1321259 93.1414444,13.3353111 93.1414444,20.877163 C93.1414444,24.909163 90.4047636,27.4115333 86.3554547,27.4115333 C82.231689,27.4115333 79.6819314,24.4616815 79.5319763,19.645163" id="Fill-24"></path>
                    </g>
                    <g id="Group-6" transform="translate(99.970078, 7.259259)">
                        <polygon id="Fill-1" fill="#FFFFFF" points="0.474337191 16.3333333 35.1795745 16.3333333 35.1795745 0.174740741 0.474337191 0.174740741"></polygon>
                        <path d="M4.26049561,12.4031185 C4.26049561,11.9986741 4.5729021,11.687563 4.97903054,11.687563 C5.36953866,11.687563 5.69756548,11.9986741 5.69756548,12.4031185 C5.69756548,12.7920074 5.36953866,13.1186741 4.97903054,13.1186741 C4.5729021,13.1186741 4.26049561,12.7920074 4.26049561,12.4031185" id="Fill-76" fill="#1A1A1A"></path>
                        <path d="M10.0088271,12.2942296 L10.0088271,12.8386741 C10.0088271,12.9314889 9.94582517,12.9942296 9.85210322,12.9942296 L9.64955968,12.9942296 C8.25935078,12.9942296 7.4470939,12.0297852 7.4470939,10.3808963 L7.4470939,6.02534074 L6.47863378,6.02534074 C6.38439115,6.02534074 6.32243053,5.96311852 6.32243053,5.86978519 L6.32243053,5.3408963 C6.32243053,5.24756296 6.38439115,5.18534074 6.47863378,5.18534074 L7.4470939,5.18534074 L7.4470939,3.16311852 C7.4470939,3.06978519 7.50905452,3.00756296 7.60277647,3.00756296 L8.18124916,3.00756296 C8.27497111,3.00756296 8.33693173,3.06978519 8.33693173,3.16311852 L8.33693173,5.18534074 L9.66518,5.18534074 C9.75890195,5.18534074 9.82138325,5.24756296 9.82138325,5.3408963 L9.82138325,5.86978519 C9.82138325,5.96311852 9.75890195,6.02534074 9.66518,6.02534074 L8.33693173,6.02534074 L8.33693173,10.3808963 C8.33693173,11.5320074 8.79044182,12.1386741 9.64955968,12.1386741 L9.85210322,12.1386741 C9.96144549,12.1386741 10.0088271,12.2008963 10.0088271,12.2942296" id="Fill-78" fill="#1A1A1A"></path>
                        <path d="M13.5854129,8.8565037 C14.5226324,8.8565037 15.084964,8.26539259 15.084964,7.44146667 C15.084964,6.53872593 14.5226324,5.90094815 13.5854129,5.90094815 C12.6169527,5.90094815 12.0858617,6.53872593 12.0858617,7.50317037 L12.0858617,8.8565037 L13.5854129,8.8565037 Z M11.1955032,10.6604296 L11.1955032,7.50317037 C11.1955032,6.07205926 12.1171024,5.04539259 13.5854129,5.04539259 C15.0224827,5.04539259 15.9753225,6.07205926 15.9753225,7.44146667 C15.9753225,8.73205926 15.0224827,9.71205926 13.5854129,9.71205926 L12.0858617,9.71205926 L12.0858617,10.6604296 C12.0858617,11.5942815 12.6476727,12.2476148 13.5854129,12.2476148 C14.4601511,12.2476148 15.0375824,11.609837 15.0693437,10.6604296 C15.0693437,10.5520593 15.131825,10.5053926 15.225547,10.5053926 L15.803499,10.5053926 C15.8967002,10.5053926 15.9597022,10.5676148 15.9597022,10.6604296 C15.9128412,12.1231704 14.9600014,13.1026519 13.5854129,13.1026519 C12.148343,13.1026519 11.1955032,12.1231704 11.1955032,10.6604296 Z" id="Fill-80" fill="#1A1A1A"></path>
                        <path d="M17.4279607,10.6764 L17.4279607,7.47195556 C17.4279607,6.07195556 18.3651801,5.02973333 19.7704887,5.02973333 C21.1294569,5.02973333 22.0359564,5.99417778 22.1135374,7.31691852 C22.1135374,7.40973333 22.0515768,7.47195556 21.9578548,7.47195556 L21.3793821,7.47195556 C21.2856602,7.47195556 21.2236995,7.42528889 21.2236995,7.31691852 C21.1606976,6.46084444 20.6296065,5.88528889 19.7704887,5.88528889 C18.8650305,5.88528889 18.3183192,6.53914074 18.3183192,7.47195556 L18.3183192,10.6764 C18.3183192,11.6097333 18.8806509,12.2630667 19.80225,12.2630667 C20.6764675,12.2630667 21.2236995,11.6252889 21.2856602,10.6764 C21.2856602,10.5675111 21.3481415,10.5208444 21.4423841,10.5208444 L22.0198154,10.5208444 C22.1135374,10.5208444 22.1765394,10.5830667 22.1765394,10.6764 C22.0984377,12.0919556 21.1768386,13.1186222 19.80225,13.1186222 C18.3802798,13.1186222 17.4279607,12.0764 17.4279607,10.6764" id="Fill-82" fill="#1A1A1A"></path>
                        <path d="M23.5667482,12.8077185 L23.5667482,2.22994074 C23.5667482,2.13660741 23.6287089,2.07438519 23.7229515,2.07438519 L24.3009035,2.07438519 C24.3946254,2.07438519 24.4565861,2.13660741 24.4565861,2.22994074 L24.4565861,5.77660741 C24.8002332,5.3254963 25.3157039,5.02994074 26.0035189,5.02994074 C27.4244477,5.02994074 28.3148063,6.07216296 28.3148063,7.51882963 L28.3148063,12.8077185 C28.3148063,12.9010519 28.2528456,12.9632741 28.158603,12.9632741 L27.580651,12.9632741 C27.486929,12.9632741 27.4244477,12.9010519 27.4244477,12.8077185 L27.4244477,7.51882963 C27.4244477,6.53882963 26.8777364,5.8854963 25.9248966,5.8854963 C25.0506791,5.8854963 24.4565861,6.53882963 24.4565861,7.51882963 L24.4565861,12.8077185 C24.4565861,12.9010519 24.3946254,12.9632741 24.3009035,12.9632741 L23.7229515,12.9632741 C23.6287089,12.9632741 23.5667482,12.9010519 23.5667482,12.8077185" id="Fill-84" fill="#1A1A1A"></path>
                    </g>
                </g>
            </g>
        </g>
    </g>
</svg>