<?xml version="1.0" encoding="UTF-8"?>
<svg width="217px" height="66px" viewBox="0 0 217 66" version="1.1" xmlns="http://www.w3.org/2000/svg" xmlns:xlink="http://www.w3.org/1999/xlink">
    <!-- Generator: Sketch 51.1 (57501) - http://www.bohemiancoding.com/sketch -->
    <title>Logo with line</title>
    <desc>Created with Sketch.</desc>
    <defs></defs>
    <g id="Page-1" stroke="none" stroke-width="1" fill="none" fill-rule="evenodd">
        <g id="Main-series" transform="translate(-643.000000, -60.000000)">
            <g id="Group">
                <g id="Logo-with-line" transform="translate(643.000000, 60.000000)">
                    <g id="Group-4">
                        <path d="M3.31484192,34.0725833 C3.31484192,33.3525833 3.67623038,32.9925833 4.33724577,32.9925833 L9.74555346,32.9925833 C10.4065688,32.9925833 10.7671227,33.3525833 10.827215,34.0125833 C10.9482342,37.7334167 12.1492458,39.5334167 14.3734958,39.5334167 C16.4767265,39.5334167 17.5575535,38.2125833 17.5575535,36.0525833 C17.5575535,27.77175 3.67623038,24.29175 3.67623038,13.0109167 C3.67623038,6.83008333 7.821765,3.10925 13.952015,3.10925 C20.2625419,3.10925 24.2895612,7.61008333 24.5299304,15.0509167 C24.5299304,15.7709167 24.1685419,16.1309167 23.5075265,16.1309167 L18.1593112,16.1309167 C17.4982958,16.1309167 17.0776496,15.7709167 17.0776496,15.0509167 C16.957465,11.6300833 15.9358958,10.0700833 14.0730342,10.0700833 C12.2093381,10.0700833 11.1276765,11.0300833 11.1276765,13.0109167 C11.1276765,20.3909167 25.1308535,23.93175 25.1308535,36.0525833 C25.1308535,42.5325833 20.7432804,46.55425 14.2524765,46.55425 C7.64232269,46.55425 3.55521115,41.8134167 3.31484192,34.0725833" id="Fill-2" fill="#FCEE21"></path>
                        <path d="M32.399185,34.79275 L32.399185,14.81025 C32.399185,8.15025 36.7266658,3.58941667 43.2174696,3.58941667 L49.5271619,3.58941667 C50.1881773,3.58941667 50.6088235,3.94941667 50.6088235,4.60941667 L50.6088235,9.41025 C50.6088235,10.13025 50.1881773,10.49025 49.5271619,10.49025 L44.1188542,10.49025 C41.5340504,10.49025 39.9716504,12.29025 39.9716504,15.0510833 L39.9716504,21.2910833 L48.0248542,21.2910833 C48.7459619,21.2910833 49.1073504,21.7119167 49.1073504,22.3719167 L49.1073504,26.9310833 C49.1073504,27.6519167 48.7459619,28.0119167 48.0248542,28.0119167 L39.9716504,28.0119167 L39.9716504,34.6119167 C39.9716504,37.37275 41.5340504,39.17275 44.1188542,39.17275 L49.5271619,39.17275 C50.1881773,39.17275 50.6088235,39.53275 50.6088235,40.19275 L50.6088235,45.0535833 C50.6088235,45.71275 50.1881773,46.0735833 49.5271619,46.0735833 L43.2174696,46.0735833 C36.7266658,46.0735833 32.399185,41.51275 32.399185,34.79275" id="Fill-4" fill="#FCEE21"></path>
                        <path d="M68.5159138,24.1718333 C70.9796985,24.1718333 72.2416369,22.671 72.2416369,19.971 L72.2416369,13.9701667 C72.2416369,11.6301667 70.9796985,10.1901667 68.93656,10.1901667 C67.0136062,10.1901667 65.7508331,11.6301667 65.7508331,13.9701667 L65.7508331,24.1718333 L68.5159138,24.1718333 Z M58.1792023,44.7535 L58.1792023,14.5101667 C58.1792023,7.73016667 62.5058485,3.10933333 68.8764677,3.10933333 C75.4265292,3.10933333 79.8141023,7.73016667 79.8141023,14.5101667 L79.8141023,19.731 C79.8141023,23.991 78.1315177,27.2318333 75.3672715,29.1526667 L81.1962254,44.7535 C81.3765023,45.4135 80.8356715,45.8335 80.1746562,45.8335 L74.3448677,45.8335 C73.6838523,45.8335 73.50441,45.4135 73.2632062,44.8135 L68.5760062,31.0718333 L65.7508331,31.0718333 L65.7508331,44.7535 C65.7508331,45.4735 65.3911138,45.8335 64.7300985,45.8335 L59.2608638,45.8335 C58.5397562,45.8335 58.1792023,45.4735 58.1792023,44.7535 Z" id="Fill-6" fill="#FCEE21"></path>
                        <path d="M90.2085692,3.82966667 L95.5567846,3.82966667 C96.2178,3.82966667 96.6392808,4.18966667 96.6392808,4.84966667 L96.6392808,44.7538333 C96.6392808,45.473 96.2178,45.8338333 95.5567846,45.8338333 L90.2085692,45.8338333 C89.4874615,45.8338333 89.1269077,45.473 89.1269077,44.7538333 L89.1269077,4.84966667 C89.1269077,4.18966667 89.4874615,3.82966667 90.2085692,3.82966667" id="Fill-8" fill="#FCEE21"></path>
                        <path d="M105.410922,34.79275 L105.410922,14.81025 C105.410922,8.15025 109.738402,3.58941667 116.228372,3.58941667 L122.538064,3.58941667 C123.199079,3.58941667 123.619725,3.94941667 123.619725,4.60941667 L123.619725,9.41025 C123.619725,10.13025 123.199079,10.49025 122.538064,10.49025 L117.129756,10.49025 C114.545787,10.49025 112.982552,12.29025 112.982552,15.0510833 L112.982552,21.2910833 L121.036591,21.2910833 C121.757698,21.2910833 122.118252,21.7119167 122.118252,22.3719167 L122.118252,26.9310833 C122.118252,27.6519167 121.757698,28.0119167 121.036591,28.0119167 L112.982552,28.0119167 L112.982552,34.6119167 C112.982552,37.37275 114.545787,39.17275 117.129756,39.17275 L122.538064,39.17275 C123.199079,39.17275 123.619725,39.53275 123.619725,40.19275 L123.619725,45.0535833 C123.619725,45.71275 123.199079,46.0735833 122.538064,46.0735833 L116.228372,46.0735833 C109.738402,46.0735833 105.410922,41.51275 105.410922,34.79275" id="Fill-10" fill="#FCEE21"></path>
                        <path d="M129.988926,34.0725833 C129.988926,33.3525833 130.34948,32.9925833 131.010495,32.9925833 L136.418803,32.9925833 C137.080653,32.9925833 137.441207,33.3525833 137.501299,34.0125833 C137.621483,37.7334167 138.82333,39.5334167 141.046745,39.5334167 C143.15081,39.5334167 144.231637,38.2125833 144.231637,36.0525833 C144.231637,27.77175 130.34948,24.29175 130.34948,13.0109167 C130.34948,6.83008333 134.495849,3.10925 140.626099,3.10925 C146.936626,3.10925 150.96281,7.61008333 151.20318,15.0509167 C151.20318,15.7709167 150.842626,16.1309167 150.18161,16.1309167 L144.83256,16.1309167 C144.171545,16.1309167 143.750899,15.7709167 143.750899,15.0509167 C143.631549,11.6300833 142.609145,10.0700833 140.746283,10.0700833 C138.883422,10.0700833 137.800926,11.0300833 137.800926,13.0109167 C137.800926,20.3909167 151.804103,23.93175 151.804103,36.0525833 C151.804103,42.5325833 147.417364,46.55425 140.92656,46.55425 C134.316407,46.55425 130.229295,41.8134167 129.988926,34.0725833" id="Fill-12" fill="#FCEE21"></path>
                        <path d="M0.810995769,31.5725833 C0.810995769,30.8525833 1.17238423,30.4925833 1.83339962,30.4925833 L7.24170731,30.4925833 C7.90272269,30.4925833 8.26327654,30.8525833 8.32336885,31.5125833 C8.44438808,35.2334167 9.64539962,37.0334167 11.8696496,37.0334167 C13.9728804,37.0334167 15.0537073,35.7125833 15.0537073,33.5525833 C15.0537073,25.27175 1.17238423,21.79175 1.17238423,10.5109167 C1.17238423,4.33008333 5.31791885,0.60925 11.4481688,0.60925 C17.7586958,0.60925 21.785715,5.11008333 22.0260842,12.5509167 C22.0260842,13.2709167 21.6646958,13.6309167 21.0036804,13.6309167 L15.655465,13.6309167 C14.9944496,13.6309167 14.5738035,13.2709167 14.5738035,12.5509167 C14.4536188,9.13008333 13.4320496,7.57008333 11.5691881,7.57008333 C9.70549192,7.57008333 8.62383038,8.53008333 8.62383038,10.5109167 C8.62383038,17.8909167 22.6270073,21.43175 22.6270073,33.5525833 C22.6270073,40.0325833 18.2394342,44.05425 11.7486304,44.05425 C5.13847654,44.05425 1.051365,39.3134167 0.810995769,31.5725833" id="Fill-14" fill="#1A1A1A"></path>
                        <path d="M29.8953388,32.29275 L29.8953388,12.31025 C29.8953388,5.65025 34.2228196,1.08941667 40.7136235,1.08941667 L47.0233158,1.08941667 C47.6843312,1.08941667 48.1049773,1.44941667 48.1049773,2.10941667 L48.1049773,6.91025 C48.1049773,7.63025 47.6843312,7.99025 47.0233158,7.99025 L41.6150081,7.99025 C39.0302042,7.99025 37.4678042,9.79025 37.4678042,12.5510833 L37.4678042,18.7910833 L45.5210081,18.7910833 C46.2421158,18.7910833 46.6035042,19.2110833 46.6035042,19.8710833 L46.6035042,24.4310833 C46.6035042,25.1519167 46.2421158,25.5119167 45.5210081,25.5119167 L37.4678042,25.5119167 L37.4678042,32.1119167 C37.4678042,34.87275 39.0302042,36.67275 41.6150081,36.67275 L47.0233158,36.67275 C47.6843312,36.67275 48.1049773,37.03275 48.1049773,37.69275 L48.1049773,42.5535833 C48.1049773,43.21275 47.6843312,43.5735833 47.0233158,43.5735833 L40.7136235,43.5735833 C34.2228196,43.5735833 29.8953388,39.01275 29.8953388,32.29275" id="Fill-16" fill="#1A1A1A"></path>
                        <path d="M66.0120677,21.6718333 C68.4758523,21.6718333 69.7377908,20.171 69.7377908,17.471 L69.7377908,11.4701667 C69.7377908,9.13016667 68.4758523,7.69016667 66.4327138,7.69016667 C64.50976,7.69016667 63.2469869,9.13016667 63.2469869,11.4701667 L63.2469869,21.6718333 L66.0120677,21.6718333 Z M55.6753562,42.2535 L55.6753562,12.0101667 C55.6753562,5.23016667 60.0020023,0.609333333 66.3726215,0.609333333 C72.9226831,0.609333333 77.3102562,5.23016667 77.3102562,12.0101667 L77.3102562,17.231 C77.3102562,21.491 75.6276715,24.7318333 72.8634254,26.6526667 L78.6923792,42.2535 C78.8726562,42.9135 78.3318254,43.3335 77.67081,43.3335 L71.8410215,43.3335 C71.1800062,43.3335 71.0005638,42.9135 70.75936,42.3135 L66.07216,28.5718333 L63.2469869,28.5718333 L63.2469869,42.2535 C63.2469869,42.9735 62.8872677,43.3335 62.2262523,43.3335 L56.7570177,43.3335 C56.03591,43.3335 55.6753562,42.9735 55.6753562,42.2535 Z" id="Fill-18" fill="#1A1A1A"></path>
                        <path d="M87.7047231,1.32966667 L93.0529385,1.32966667 C93.7139538,1.32966667 94.1354346,1.68966667 94.1354346,2.34966667 L94.1354346,42.2538333 C94.1354346,42.973 93.7139538,43.3338333 93.0529385,43.3338333 L87.7047231,43.3338333 C86.9836154,43.3338333 86.6230615,42.973 86.6230615,42.2538333 L86.6230615,2.34966667 C86.6230615,1.68966667 86.9836154,1.32966667 87.7047231,1.32966667" id="Fill-20" fill="#1A1A1A"></path>
                        <path d="M102.907075,32.29275 L102.907075,12.31025 C102.907075,5.65025 107.234556,1.08941667 113.724525,1.08941667 L120.034218,1.08941667 C120.695233,1.08941667 121.115879,1.44941667 121.115879,2.10941667 L121.115879,6.91025 C121.115879,7.63025 120.695233,7.99025 120.034218,7.99025 L114.62591,7.99025 C112.041941,7.99025 110.478706,9.79025 110.478706,12.5510833 L110.478706,18.7910833 L118.532745,18.7910833 C119.253852,18.7910833 119.614406,19.2110833 119.614406,19.8710833 L119.614406,24.4310833 C119.614406,25.1519167 119.253852,25.5119167 118.532745,25.5119167 L110.478706,25.5119167 L110.478706,32.1119167 C110.478706,34.87275 112.041941,36.67275 114.62591,36.67275 L120.034218,36.67275 C120.695233,36.67275 121.115879,37.03275 121.115879,37.69275 L121.115879,42.5535833 C121.115879,43.21275 120.695233,43.5735833 120.034218,43.5735833 L113.724525,43.5735833 C107.234556,43.5735833 102.907075,39.01275 102.907075,32.29275" id="Fill-22" fill="#1A1A1A"></path>
                        <path d="M127.48508,31.5725833 C127.48508,30.8525833 127.845633,30.4925833 128.506649,30.4925833 L133.914957,30.4925833 C134.576807,30.4925833 134.93736,30.8525833 134.997453,31.5125833 C135.117637,35.2334167 136.319483,37.0334167 138.542899,37.0334167 C140.646964,37.0334167 141.727791,35.7125833 141.727791,33.5525833 C141.727791,25.27175 127.845633,21.79175 127.845633,10.5109167 C127.845633,4.33008333 131.992003,0.60925 138.122253,0.60925 C144.43278,0.60925 148.458964,5.11008333 148.699333,12.5509167 C148.699333,13.2709167 148.33878,13.6309167 147.677764,13.6309167 L142.328714,13.6309167 C141.667699,13.6309167 141.247053,13.2709167 141.247053,12.5509167 C141.127703,9.13008333 140.105299,7.57008333 138.242437,7.57008333 C136.379576,7.57008333 135.29708,8.53008333 135.29708,10.5109167 C135.29708,17.8909167 149.300257,21.43175 149.300257,33.5525833 C149.300257,40.0325833 144.913518,44.05425 138.422714,44.05425 C131.81256,44.05425 127.725449,39.3134167 127.48508,31.5725833" id="Fill-24" fill="#1A1A1A"></path>
                    </g>
                    <g id="Group-5" transform="translate(8.346154, 44.166667)">
                        <polygon id="Fill-26" fill="#1A1A1A" points="153 0 161.346154 0 161.346154 20.8333333 153 20.8333333"></polygon>
                        <polygon id="Fill-28" fill="#1A1A1A" points="140 21.3333333 140 13 160.865385 13 160.865385 21.3333333"></polygon>
                        <polygon id="Fill-30" fill="#1A1A1A" points="118.264666 12.5 118.264666 20.8333333 15.6812546 20.8333333 15.6812546 12.5"></polygon>
                        <polygon id="Fill-72" fill="#FCEE21" points="132.907492 12.5 132.907492 20.8333333 124.561338 20.8333333 124.561338 12.5"></polygon>
                        <polygon id="Fill-74" fill="#FCEE21" points="8.5498 12.5 8.5498 20.8333333 0.203646154 20.8333333 0.203646154 12.5"></polygon>
                    </g>
                    <g id="Group-6" transform="translate(160.246154, 11.666667)">
                        <polygon id="Fill-1" fill="#FCEE21" points="0.760334615 26.25 56.3907885 26.25 56.3907885 0.280833333 0.760334615 0.280833333"></polygon>
                        <path d="M6.82932385,19.9335833 C6.82932385,19.2835833 7.33009308,18.7835833 7.98109308,18.7835833 C8.60705462,18.7835833 9.13286231,19.2835833 9.13286231,19.9335833 C9.13286231,20.5585833 8.60705462,21.0835833 7.98109308,21.0835833 C7.33009308,21.0835833 6.82932385,20.5585833 6.82932385,19.9335833" id="Fill-76" fill="#1A1A1A"></path>
                        <path d="M16.0435612,19.7585833 L16.0435612,20.6335833 C16.0435612,20.78275 15.9425727,20.8835833 15.7923419,20.8835833 L15.4676765,20.8835833 C13.2392535,20.8835833 11.9372535,19.3335833 11.9372535,16.6835833 L11.9372535,9.68358333 L10.3848688,9.68358333 C10.2338035,9.68358333 10.1344842,9.58358333 10.1344842,9.43358333 L10.1344842,8.58358333 C10.1344842,8.43358333 10.2338035,8.33358333 10.3848688,8.33358333 L11.9372535,8.33358333 L11.9372535,5.08358333 C11.9372535,4.93358333 12.0365727,4.83358333 12.1868035,4.83358333 L13.1140612,4.83358333 C13.2642919,4.83358333 13.3636112,4.93358333 13.3636112,5.08358333 L13.3636112,8.33358333 L15.492715,8.33358333 C15.6429458,8.33358333 15.7430996,8.43358333 15.7430996,8.58358333 L15.7430996,9.43358333 C15.7430996,9.58358333 15.6429458,9.68358333 15.492715,9.68358333 L13.3636112,9.68358333 L13.3636112,16.6835833 C13.3636112,18.5335833 14.0905612,19.5085833 15.4676765,19.5085833 L15.7923419,19.5085833 C15.9676112,19.5085833 16.0435612,19.6085833 16.0435612,19.7585833" id="Fill-78" fill="#1A1A1A"></path>
                        <path d="M21.7766177,14.2336667 C23.2789254,14.2336667 24.18031,13.2836667 24.18031,11.9595 C24.18031,10.5086667 23.2789254,9.48366667 21.7766177,9.48366667 C20.2242331,9.48366667 19.3729254,10.5086667 19.3729254,12.0586667 L19.3729254,14.2336667 L21.7766177,14.2336667 Z M17.9457331,17.1328333 L17.9457331,12.0586667 C17.9457331,9.75866667 19.4230023,8.10866667 21.7766177,8.10866667 C24.0801562,8.10866667 25.6075023,9.75866667 25.6075023,11.9595 C25.6075023,14.0336667 24.0801562,15.6086667 21.7766177,15.6086667 L19.3729254,15.6086667 L19.3729254,17.1328333 C19.3729254,18.6336667 20.2734754,19.6836667 21.7766177,19.6836667 C23.1787715,19.6836667 24.10436,18.6586667 24.1552715,17.1328333 C24.1552715,16.9586667 24.2554254,16.8836667 24.4056562,16.8836667 L25.3320792,16.8836667 C25.4814754,16.8836667 25.5824638,16.9836667 25.5824638,17.1328333 C25.5073485,19.4836667 23.9800023,21.0578333 21.7766177,21.0578333 C19.4730792,21.0578333 17.9457331,19.4836667 17.9457331,17.1328333 Z" id="Fill-80" fill="#1A1A1A"></path>
                        <path d="M27.9359958,17.1585 L27.9359958,12.0085 C27.9359958,9.7585 29.4383035,8.0835 31.6909304,8.0835 C33.8692765,8.0835 35.3223419,9.6335 35.4466996,11.7593333 C35.4466996,11.9085 35.3473804,12.0085 35.1971496,12.0085 L34.2698919,12.0085 C34.1196612,12.0085 34.0203419,11.9335 34.0203419,11.7593333 C33.9193535,10.3835 33.0680458,9.4585 31.6909304,9.4585 C30.2395342,9.4585 29.3631881,10.5093333 29.3631881,12.0085 L29.3631881,17.1585 C29.3631881,18.6585 30.2645727,19.7085 31.7418419,19.7085 C33.1431612,19.7085 34.0203419,18.6835 34.1196612,17.1585 C34.1196612,16.9835 34.219815,16.9085 34.3708804,16.9085 L35.2964688,16.9085 C35.4466996,16.9085 35.5476881,17.0085 35.5476881,17.1585 C35.4224958,19.4335 33.9452265,21.0835 31.7418419,21.0835 C29.4625073,21.0835 27.9359958,19.4085 27.9359958,17.1585" id="Fill-82" fill="#1A1A1A"></path>
                        <path d="M37.7761112,20.5838333 L37.7761112,3.58383333 C37.7761112,3.43383333 37.8754304,3.33383333 38.0264958,3.33383333 L38.9529188,3.33383333 C39.1031496,3.33383333 39.2024688,3.43383333 39.2024688,3.58383333 L39.2024688,9.28383333 C39.753315,8.55883333 40.5795842,8.08383333 41.6821112,8.08383333 C43.9597765,8.08383333 45.3869688,9.75883333 45.3869688,12.0838333 L45.3869688,20.5838333 C45.3869688,20.7338333 45.2876496,20.8338333 45.1365842,20.8338333 L44.2101612,20.8338333 C44.0599304,20.8338333 43.9597765,20.7338333 43.9597765,20.5838333 L43.9597765,12.0838333 C43.9597765,10.5088333 43.0834304,9.45883333 41.5560842,9.45883333 C40.154765,9.45883333 39.2024688,10.5088333 39.2024688,12.0838333 L39.2024688,20.5838333 C39.2024688,20.7338333 39.1031496,20.8338333 38.9529188,20.8338333 L38.0264958,20.8338333 C37.8754304,20.8338333 37.7761112,20.7338333 37.7761112,20.5838333" id="Fill-84" fill="#1A1A1A"></path>
                    </g>
                </g>
            </g>
        </g>
    </g>
</svg>